<svg xmlns="http://www.w3.org/2000/svg" viewBox="0 0 181.42 28.35"><defs><style>.cls-1{isolation:isolate;}.cls-2{fill:#dc4c60;}.cls-3,.cls-4{fill:#1e1e1c;}.cls-4{mix-blend-mode:overlay;}.cls-5{fill:#d79e41;}.cls-6{fill:#7b9f4e;}.cls-7{fill:#c6e0e8;}.cls-8{fill:#a8b8df;}.cls-9{fill:#539eb9;}</style></defs><title>Artboard 1</title><g class="cls-1"><g id="Layer_1" data-name="Layer 1"><circle class="cls-2" cx="6.26" cy="21.66" r="5.84"/><path class="cls-3" d="M3.47,2H5V9.46H8.77v1.64H3.39V2Z"/><path class="cls-3" d="M13.62,2h4.54V3.66h-3V5.74h2.23V7.39H15.18V9.46h3v1.64H13.54V2Z"/><path class="cls-3" d="M25.82,2h3.06a3.06,3.06,0,0,1,0,6.11H27.39v3H25.74V2Zm1.57,4.46H28.8a1.41,1.41,0,1,0,0-2.82H27.39Z"/><path class="cls-3" d="M45.73,6.56A4.55,4.55,0,1,1,41.18,2,4.54,4.54,0,0,1,45.73,6.56Zm-7.44,0a2.9,2.9,0,1,0,2.9-2.9A2.9,2.9,0,0,0,38.28,6.56Z"/><path class="cls-3" d="M50.87,2h1.57v9.09H50.79V2Z"/><path class="cls-3" d="M69,2h6V3.65H72.72v7.44H71.07V3.65H68.84V2Z"/><path class="cls-3" d="M82.94,2h1.49a4.55,4.55,0,0,1,0,9.09H82.78V2Zm1.49,7.45a2.9,2.9,0,0,0,0-5.8Z"/><path class="cls-3" d="M94,2h4.54V3.66h-3V5.74h2.23V7.39H95.61V9.46h3V11.1H94V2Z"/><path class="cls-4" d="M106.17,2h1.57v.07l2.15,6.47L112,2.08V2h1.65v.16h0l-3,8.87v.07h-1.65V11l-3-8.87h0V2Z"/><path class="cls-4" d="M118.7,2h1.57V7.67a1.78,1.78,0,1,0,3.56,0V2h1.65V7.79h0a3.43,3.43,0,0,1-6.86-.12V2Z"/><path class="cls-3" d="M130.89,2h4.54V3.66h-3V5.74h2.23V7.39h-2.23V9.46h3V11.1h-4.62V2Z"/><path class="cls-3" d="M82.45,16.92h1.49a4.55,4.55,0,0,1,0,9.09H82.29V16.92Zm1.49,7.45a2.9,2.9,0,0,0,0-5.8Z"/><path class="cls-3" d="M93.52,16.92h1.57v5.66a1.78,1.78,0,1,0,3.56,0V16.92h1.65v5.78h0a3.43,3.43,0,0,1-6.86-.12V16.92Z"/><path class="cls-3" d="M112.64,16.92h1.57v1.65h-1.57a2.9,2.9,0,0,0,0,5.8h1.57V26h-1.64a4.55,4.55,0,0,1,0-9.09h.08Z"/><path class="cls-3" d="M119.53,16.92h4.54v1.65h-3v2.07h2.23V22.3H121.1v2.07h3V26h-4.62V16.92Z"/><path class="cls-3" d="M129.4,16.93h3.06a3.06,3.06,0,0,1,1.36,5.75l.09.17,0,.07,1.47,2.93h0V26h-1.65V26L132.33,23H131v3h-1.64V16.93ZM131,21.39h1.41a1.41,1.41,0,0,0,0-2.82H131Z"/><path class="cls-3" d="M140.21,16.92h1.57V17l2.15,6.47L146.08,17v-.07h1.65v.16h0l-3,8.87V26h-1.65v-.07l-3-8.87h0v-.16Z"/><path class="cls-3" d="M152.76,16.92h4.54v1.65h-3v2.07h2.23V22.3h-2.23v2.07h3V26h-4.62V16.92Z"/><path class="cls-3" d="M164.93,16.94h1.46l.06,0v0h0V17l3,8.87h0v.07l0,.06h0v0h-.06l-.06,0v0h-1.42l-.06,0v0h0V26l-.72-2.17h-2.86L163.51,26V26h0v0l-.06,0H162v0l-.06,0h-.07v0h0l0-.07v-.06h0l3-8.87v-.07h0v0Zm-.15,5.22h1.77l-.89-2.65Z"/><path class="cls-3" d="M174.22,16.92h1.57v5.66a1.78,1.78,0,1,0,3.56,0V16.92H181v5.78h0a3.43,3.43,0,0,1-6.86-.12V16.92Z"/><polygon class="cls-3" points="63.84 2.01 62.44 2.01 62.36 2.01 62.28 2.01 62.28 2.09 62.28 2.17 62.28 5.59 59.46 2.06 59.46 2.01 59.42 2.01 59.39 1.98 59.35 2.01 57.97 2.01 57.89 2.01 57.81 2.01 57.81 2.09 57.81 2.17 57.81 10.95 57.81 11.03 57.81 11.1 57.89 11.1 57.97 11.1 59.38 11.1 59.46 11.1 59.46 10.95 59.46 4.56 61.53 7.35 61.53 7.38 61.56 7.38 62.28 8.35 62.28 11.03 62.28 11.1 62.36 11.1 62.44 11.1 63.84 11.1 63.92 11.1 63.92 10.95 63.92 2.09 63.92 2.01 63.84 2.01"/><circle class="cls-3" cx="41.18" cy="6.56" r="1.74"/><circle class="cls-5" cx="172.73" cy="6.54" r="5.94"/><circle class="cls-6" cx="150.99" cy="6.54" r="5.94"/><circle class="cls-7" cx="70.12" cy="21.66" r="6.08" transform="translate(26.08 80.37) rotate(-70.29)"/><circle class="cls-8" cx="48.38" cy="21.66" r="5.84"/><circle class="cls-9" cx="26.87" cy="21.66" r="5.84"/></g></g></svg>